<mxfile host="app.diagrams.net" modified="2023-05-18T23:43:44.357Z" agent="Mozilla/5.0 (Windows NT 10.0; Win64; x64) AppleWebKit/537.36 (KHTML, like Gecko) Chrome/113.0.0.0 Safari/537.36" etag="wlR23II1x6ckU1nJerUr" version="21.2.4" type="device">
  <diagram id="C5RBs43oDa-KdzZeNtuy" name="Page-1">
    <mxGraphModel dx="1075" dy="499" grid="1" gridSize="10" guides="1" tooltips="1" connect="1" arrows="1" fold="1" page="1" pageScale="1" pageWidth="827" pageHeight="1169" math="0" shadow="0">
      <root>
        <mxCell id="WIyWlLk6GJQsqaUBKTNV-0" />
        <mxCell id="WIyWlLk6GJQsqaUBKTNV-1" parent="WIyWlLk6GJQsqaUBKTNV-0" />
        <mxCell id="FzMsgF-pQHzjbz25Qz2m-0" value="Administrador" style="shape=umlActor;verticalLabelPosition=bottom;verticalAlign=top;html=1;fontSize=16;" vertex="1" parent="WIyWlLk6GJQsqaUBKTNV-1">
          <mxGeometry x="40" y="735" width="30" height="60" as="geometry" />
        </mxCell>
        <mxCell id="FzMsgF-pQHzjbz25Qz2m-2" value="Usuari &lt;br&gt;no registrat" style="shape=umlActor;verticalLabelPosition=bottom;verticalAlign=top;html=1;fontSize=16;" vertex="1" parent="WIyWlLk6GJQsqaUBKTNV-1">
          <mxGeometry x="40" y="120" width="30" height="60" as="geometry" />
        </mxCell>
        <mxCell id="FzMsgF-pQHzjbz25Qz2m-57" value="" style="edgeStyle=none;curved=1;rounded=0;orthogonalLoop=1;jettySize=auto;html=1;fontSize=12;startSize=8;endSize=8;entryX=0.5;entryY=1;entryDx=0;entryDy=0;" edge="1" parent="WIyWlLk6GJQsqaUBKTNV-1" source="FzMsgF-pQHzjbz25Qz2m-5" target="FzMsgF-pQHzjbz25Qz2m-56">
          <mxGeometry relative="1" as="geometry" />
        </mxCell>
        <mxCell id="FzMsgF-pQHzjbz25Qz2m-5" value="Administrar" style="html=1;whiteSpace=wrap;fontSize=16;" vertex="1" parent="WIyWlLk6GJQsqaUBKTNV-1">
          <mxGeometry x="330" y="735" width="110" height="50" as="geometry" />
        </mxCell>
        <mxCell id="FzMsgF-pQHzjbz25Qz2m-21" value="" style="edgeStyle=none;curved=1;rounded=0;orthogonalLoop=1;jettySize=auto;html=1;fontSize=12;startSize=8;endSize=8;entryX=0.5;entryY=0;entryDx=0;entryDy=0;" edge="1" parent="WIyWlLk6GJQsqaUBKTNV-1" source="FzMsgF-pQHzjbz25Qz2m-6" target="FzMsgF-pQHzjbz25Qz2m-20">
          <mxGeometry relative="1" as="geometry">
            <mxPoint x="480" y="150" as="targetPoint" />
            <Array as="points">
              <mxPoint x="390" y="145" />
            </Array>
          </mxGeometry>
        </mxCell>
        <mxCell id="FzMsgF-pQHzjbz25Qz2m-6" value="Registrat" style="html=1;whiteSpace=wrap;fontSize=16;" vertex="1" parent="WIyWlLk6GJQsqaUBKTNV-1">
          <mxGeometry x="190" y="125" width="110" height="50" as="geometry" />
        </mxCell>
        <mxCell id="FzMsgF-pQHzjbz25Qz2m-15" value="" style="endArrow=open;html=1;endSize=12;startArrow=diamondThin;startSize=14;startFill=1;edgeStyle=orthogonalEdgeStyle;align=left;verticalAlign=bottom;rounded=0;fontSize=12;curved=1;" edge="1" parent="WIyWlLk6GJQsqaUBKTNV-1">
          <mxGeometry x="0.1895" y="80" relative="1" as="geometry">
            <mxPoint x="70" y="764.5" as="sourcePoint" />
            <mxPoint x="320" y="765" as="targetPoint" />
            <mxPoint as="offset" />
          </mxGeometry>
        </mxCell>
        <mxCell id="FzMsgF-pQHzjbz25Qz2m-19" value="" style="endArrow=open;html=1;endSize=12;startArrow=diamondThin;startSize=14;startFill=1;edgeStyle=orthogonalEdgeStyle;align=left;verticalAlign=bottom;rounded=0;fontSize=12;curved=1;" edge="1" parent="WIyWlLk6GJQsqaUBKTNV-1">
          <mxGeometry x="0.1895" y="80" relative="1" as="geometry">
            <mxPoint x="70" y="149.5" as="sourcePoint" />
            <mxPoint x="190" y="150" as="targetPoint" />
            <mxPoint as="offset" />
          </mxGeometry>
        </mxCell>
        <mxCell id="FzMsgF-pQHzjbz25Qz2m-33" value="" style="rounded=0;orthogonalLoop=1;jettySize=auto;html=1;fontSize=12;startSize=8;endSize=8;entryX=0.5;entryY=1;entryDx=0;entryDy=0;" edge="1" parent="WIyWlLk6GJQsqaUBKTNV-1" source="FzMsgF-pQHzjbz25Qz2m-20" target="FzMsgF-pQHzjbz25Qz2m-26">
          <mxGeometry relative="1" as="geometry" />
        </mxCell>
        <mxCell id="FzMsgF-pQHzjbz25Qz2m-20" value="Identificar-se" style="html=1;whiteSpace=wrap;fontSize=16;" vertex="1" parent="WIyWlLk6GJQsqaUBKTNV-1">
          <mxGeometry x="330" y="205" width="110" height="50" as="geometry" />
        </mxCell>
        <mxCell id="FzMsgF-pQHzjbz25Qz2m-34" value="" style="rounded=0;orthogonalLoop=1;jettySize=auto;html=1;fontSize=12;startSize=8;endSize=8;exitX=0.5;exitY=0;exitDx=0;exitDy=0;" edge="1" parent="WIyWlLk6GJQsqaUBKTNV-1" source="FzMsgF-pQHzjbz25Qz2m-26" target="FzMsgF-pQHzjbz25Qz2m-26">
          <mxGeometry relative="1" as="geometry">
            <mxPoint x="385" y="335" as="sourcePoint" />
          </mxGeometry>
        </mxCell>
        <mxCell id="FzMsgF-pQHzjbz25Qz2m-22" value="Consultar Pelicula / Serie" style="html=1;whiteSpace=wrap;fontSize=16;" vertex="1" parent="WIyWlLk6GJQsqaUBKTNV-1">
          <mxGeometry x="330" y="275" width="110" height="50" as="geometry" />
        </mxCell>
        <mxCell id="FzMsgF-pQHzjbz25Qz2m-24" value="Veure Valoració" style="html=1;whiteSpace=wrap;fontSize=16;" vertex="1" parent="WIyWlLk6GJQsqaUBKTNV-1">
          <mxGeometry x="330" y="345" width="110" height="50" as="geometry" />
        </mxCell>
        <mxCell id="FzMsgF-pQHzjbz25Qz2m-36" value="" style="edgeStyle=none;curved=1;rounded=0;orthogonalLoop=1;jettySize=auto;html=1;fontSize=12;startSize=8;endSize=8;entryX=0.5;entryY=1;entryDx=0;entryDy=0;" edge="1" parent="WIyWlLk6GJQsqaUBKTNV-1" source="FzMsgF-pQHzjbz25Qz2m-26" target="FzMsgF-pQHzjbz25Qz2m-35">
          <mxGeometry relative="1" as="geometry" />
        </mxCell>
        <mxCell id="FzMsgF-pQHzjbz25Qz2m-26" value="Editar dades" style="html=1;whiteSpace=wrap;fontSize=16;" vertex="1" parent="WIyWlLk6GJQsqaUBKTNV-1">
          <mxGeometry x="330" y="415" width="110" height="50" as="geometry" />
        </mxCell>
        <mxCell id="FzMsgF-pQHzjbz25Qz2m-28" value="" style="endArrow=block;endFill=1;html=1;edgeStyle=orthogonalEdgeStyle;align=left;verticalAlign=top;rounded=0;fontSize=12;startSize=8;endSize=8;curved=1;exitX=1;exitY=0.5;exitDx=0;exitDy=0;" edge="1" parent="WIyWlLk6GJQsqaUBKTNV-1" source="FzMsgF-pQHzjbz25Qz2m-5">
          <mxGeometry x="-1" relative="1" as="geometry">
            <mxPoint x="300" y="765" as="sourcePoint" />
            <mxPoint x="750" y="445" as="targetPoint" />
          </mxGeometry>
        </mxCell>
        <mxCell id="FzMsgF-pQHzjbz25Qz2m-3" value="Usuari registrat&lt;br&gt;" style="shape=umlActor;verticalLabelPosition=bottom;verticalAlign=top;html=1;fontSize=16;" vertex="1" parent="WIyWlLk6GJQsqaUBKTNV-1">
          <mxGeometry x="740" y="355" width="30" height="60" as="geometry" />
        </mxCell>
        <mxCell id="FzMsgF-pQHzjbz25Qz2m-38" value="" style="edgeStyle=none;curved=1;rounded=0;orthogonalLoop=1;jettySize=auto;html=1;fontSize=12;startSize=8;endSize=8;" edge="1" parent="WIyWlLk6GJQsqaUBKTNV-1" source="FzMsgF-pQHzjbz25Qz2m-35" target="FzMsgF-pQHzjbz25Qz2m-37">
          <mxGeometry relative="1" as="geometry" />
        </mxCell>
        <mxCell id="FzMsgF-pQHzjbz25Qz2m-35" value="Afegir llista preferits" style="html=1;whiteSpace=wrap;fontSize=16;" vertex="1" parent="WIyWlLk6GJQsqaUBKTNV-1">
          <mxGeometry x="330" y="485" width="110" height="50" as="geometry" />
        </mxCell>
        <mxCell id="FzMsgF-pQHzjbz25Qz2m-37" value="Accedir informació Pelicula / Serie" style="html=1;whiteSpace=wrap;fontSize=16;" vertex="1" parent="WIyWlLk6GJQsqaUBKTNV-1">
          <mxGeometry x="330" y="555" width="110" height="60" as="geometry" />
        </mxCell>
        <mxCell id="FzMsgF-pQHzjbz25Qz2m-44" value="" style="endArrow=block;endFill=1;html=1;align=left;verticalAlign=top;rounded=0;fontSize=12;startSize=8;endSize=8;entryX=1;entryY=0.5;entryDx=0;entryDy=0;" edge="1" parent="WIyWlLk6GJQsqaUBKTNV-1" target="FzMsgF-pQHzjbz25Qz2m-37">
          <mxGeometry x="-1" relative="1" as="geometry">
            <mxPoint x="740" y="390" as="sourcePoint" />
            <mxPoint x="520" y="585" as="targetPoint" />
          </mxGeometry>
        </mxCell>
        <mxCell id="FzMsgF-pQHzjbz25Qz2m-46" value="" style="endArrow=block;endFill=1;html=1;align=left;verticalAlign=top;rounded=0;fontSize=12;startSize=8;endSize=8;entryX=1;entryY=0.5;entryDx=0;entryDy=0;" edge="1" parent="WIyWlLk6GJQsqaUBKTNV-1" target="FzMsgF-pQHzjbz25Qz2m-35">
          <mxGeometry x="-1" relative="1" as="geometry">
            <mxPoint x="740" y="390" as="sourcePoint" />
            <mxPoint x="440" y="585" as="targetPoint" />
          </mxGeometry>
        </mxCell>
        <mxCell id="FzMsgF-pQHzjbz25Qz2m-47" value="" style="endArrow=block;endFill=1;html=1;align=left;verticalAlign=top;rounded=0;fontSize=12;startSize=8;endSize=8;entryX=1;entryY=0.5;entryDx=0;entryDy=0;" edge="1" parent="WIyWlLk6GJQsqaUBKTNV-1" target="FzMsgF-pQHzjbz25Qz2m-26">
          <mxGeometry x="-1" relative="1" as="geometry">
            <mxPoint x="740" y="390" as="sourcePoint" />
            <mxPoint x="440" y="510" as="targetPoint" />
          </mxGeometry>
        </mxCell>
        <mxCell id="FzMsgF-pQHzjbz25Qz2m-48" value="" style="endArrow=block;endFill=1;html=1;align=left;verticalAlign=top;rounded=0;fontSize=12;startSize=8;endSize=8;entryX=1;entryY=0.5;entryDx=0;entryDy=0;" edge="1" parent="WIyWlLk6GJQsqaUBKTNV-1" target="FzMsgF-pQHzjbz25Qz2m-24">
          <mxGeometry x="-1" relative="1" as="geometry">
            <mxPoint x="740" y="390" as="sourcePoint" />
            <mxPoint x="440" y="440" as="targetPoint" />
          </mxGeometry>
        </mxCell>
        <mxCell id="FzMsgF-pQHzjbz25Qz2m-54" value="" style="endArrow=block;endFill=1;html=1;align=left;verticalAlign=top;rounded=0;fontSize=12;startSize=8;endSize=8;entryX=1;entryY=0.5;entryDx=0;entryDy=0;" edge="1" parent="WIyWlLk6GJQsqaUBKTNV-1" target="FzMsgF-pQHzjbz25Qz2m-22">
          <mxGeometry x="-1" relative="1" as="geometry">
            <mxPoint x="740" y="390" as="sourcePoint" />
            <mxPoint x="460" y="335" as="targetPoint" />
          </mxGeometry>
        </mxCell>
        <mxCell id="FzMsgF-pQHzjbz25Qz2m-55" value="" style="endArrow=block;endFill=1;html=1;align=left;verticalAlign=top;rounded=0;fontSize=12;startSize=8;endSize=8;entryX=1;entryY=0.5;entryDx=0;entryDy=0;" edge="1" parent="WIyWlLk6GJQsqaUBKTNV-1">
          <mxGeometry x="-1" relative="1" as="geometry">
            <mxPoint x="740" y="390" as="sourcePoint" />
            <mxPoint x="440" y="230" as="targetPoint" />
          </mxGeometry>
        </mxCell>
        <mxCell id="FzMsgF-pQHzjbz25Qz2m-56" value="Actualitzar catàleg" style="html=1;whiteSpace=wrap;fontSize=16;" vertex="1" parent="WIyWlLk6GJQsqaUBKTNV-1">
          <mxGeometry x="330" y="820" width="110" height="50" as="geometry" />
        </mxCell>
      </root>
    </mxGraphModel>
  </diagram>
</mxfile>
